# xmcd
#
# Track frame offsets:
#	150
#	19484
#	39896
#	59876
#	81103
#	98234
#	116398
#	137680
#	154702
#	166984
#	190877
#	213893
#	231415
#	251069
#
# Disc length: 3582 seconds
#
# Revision: 4
# Processed by: cddbd v1.5.2PL0 Copyright (c) Steve Scherf et al.
# Submitted via: EasyCDDAExtractor 15.3.0.1
#
DISCID=be0dfc0e
DTITLE=Rocio Jurado - Canciones De Amor
DYEAR=2012
DGENRE=Latin
TTITLE0=Como Una Ola
TTITLE1=Ese Hombre
TTITLE2=Señora
TTITLE3=Si Amanece
TTITLE4=Lo Siento Mi Amor
TTITLE5=Mi Amante Amigo
TTITLE6=Como Yo Te Amo
TTITLE7=Muera El Amor
TTITLE8=A Que No Te Vas
TTITLE9=El Amor Acaba
TTITLE10=De Quien Sera La Culpa
TTITLE11=Por Que Me Habras Besado (Duo Con Juan Pardo)
TTITLE12=Amor Marinero
TTITLE13=Frente A Frente
EXTD=
EXTT0=
EXTT1=
EXTT2=
EXTT3=
EXTT4=
EXTT5=
EXTT6=
EXTT7=
EXTT8=
EXTT9=
EXTT10=
EXTT11=
EXTT12=
EXTT13=
PLAYORDER=
